<svg xmlns="http://www.w3.org/2000/svg" viewBox="0 0 300 300"><defs><style>.a{fill:#485094;}.b{fill:#fff;}</style></defs><title>calconnect-square</title><rect class="a" width="300" height="300"/><path class="b" d="M98.4,75.5V95.7l-3.4-2c-1.4-.9-4.6-2-9.3-3.4a45.1,45.1,0,0,0-14.1-2.1c-9.8,0-18.1,3.7-25.2,11.2a38,38,0,0,0-10.6,27.1,38.8,38.8,0,0,0,10.5,27.3c6.9,7.4,15.2,11.1,24.8,11.1a44.1,44.1,0,0,0,15.6-2.6,35.1,35.1,0,0,0,10.6-5.4l3.2-2.6v21.5l-3.4,2.1c-1.4.8-4.6,1.7-9.8,3a63.6,63.6,0,0,1-16.2,2c-15.7,0-28.7-5.5-39.1-16.4s-15.6-24.2-15.6-40.1A54.9,54.9,0,0,1,32.6,86.6c10.8-10.9,23.8-16.4,39-16.4,10.3,0,20.2,2.1,24.1,3.9Z" transform="translate(0 0)"/><path class="b" d="M156.5,65.1l48.9,116.1H184.2l-8.5-22.1H137.2l-8.5,22.1H107.5Zm12.8,76.7-12.8-32.9-12.9,32.9Z" transform="translate(0 0)"/><path class="b" d="M235.9,163h50.9v18.2h-70V71.8h19.1Z" transform="translate(0 0)"/><path class="b" d="M48.2,195.2v5.6a20,20,0,0,0-9.6-2.3,15.2,15.2,0,0,0-11.4,5,16,16,0,0,0-4.8,11.8,16.7,16.7,0,0,0,4.8,12.3,15.3,15.3,0,0,0,11.3,4.7,20,20,0,0,0,9.3-2.4l1.3-.8V235a22.8,22.8,0,0,1-10.9,2.4A20.6,20.6,0,0,1,23,231.1a22.2,22.2,0,0,1-6.1-15.7,21.3,21.3,0,0,1,6.3-15.5,20.9,20.9,0,0,1,15.2-6.4,33.3,33.3,0,0,1,8.7,1.3Z" transform="translate(0 0)"/><path class="b" d="M89.5,199.9a21.7,21.7,0,0,1,0,31,21.7,21.7,0,0,1-15.8,6.4A21.6,21.6,0,0,1,58,230.9a21.7,21.7,0,0,1,0-31,21.6,21.6,0,0,1,15.7-6.4A21.7,21.7,0,0,1,89.5,199.9Zm-3.9,27.4a17,17,0,0,0-11.9-29,17,17,0,1,0,11.9,29Z" transform="translate(0 0)"/><path class="b" d="M130.9,224V194.2h5.4v43.7L108.7,207v29.8h-5.5V193Z" transform="translate(0 0)"/><path class="b" d="M173.8,224V194.2h5.4v43.7L151.5,207v29.8h-5.4V193Z" transform="translate(0 0)"/><path class="b" d="M216.5,231.8v5H189V194.2h27v5H194.4v13.4h18.2v5.1H194.4v14.1Z" transform="translate(0 0)"/><path class="b" d="M250.1,195.2v5.6a19.9,19.9,0,0,0-9.5-2.3,15.6,15.6,0,0,0-11.5,5,15.9,15.9,0,0,0-4.7,11.8c0,5,1.5,9.1,4.7,12.3a15.4,15.4,0,0,0,11.3,4.7,20.4,20.4,0,0,0,9.4-2.4l1.2-.8V235a22.1,22.1,0,0,1-10.8,2.4,20.4,20.4,0,0,1-15.2-6.3,21.8,21.8,0,0,1-6.1-15.7,21.3,21.3,0,0,1,6.3-15.5,20.5,20.5,0,0,1,15.1-6.4,31.9,31.9,0,0,1,8.7,1.3Z" transform="translate(0 0)"/><path class="b" d="M283.3,199.2H271.4v37.6H266V199.2H254.1v-5h29.2Z" transform="translate(0 0)"/></svg>